<svg xmlns="http://www.w3.org/2000/svg" xmlns:xlink="http://www.w3.org/1999/xlink" width="486" zoomAndPan="magnify" viewBox="0 0 364.5 348.749994" height="465" preserveAspectRatio="xMidYMid meet" version="1.0"><path stroke-linecap="round" transform="matrix(0.0383474, 0, 0, -0.0383474, -1145.064715, 380.818201)" fill="none" stroke-linejoin="round" d="M 33956.892058 1561.837884 C 34091.964781 1966.954188 34252.911162 3090.42105 34297.01862 3509.289102 C 34350.599504 4018.918689 34397.762906 4526.001655 34587.231431 4999.367374 C 34834.762891 5618.399754 36188.749793 7109.496674 36188.749793 7612.403185 " stroke="#000000" stroke-width="58.619999" stroke-opacity="1" stroke-miterlimit="10"/><path stroke-linecap="round" transform="matrix(0.0383474, 0, 0, -0.0383474, -1145.064715, 380.818201)" fill="none" stroke-linejoin="round" d="M 34591.509752 4987.754787 C 34711.099026 5226.933334 34558.505558 5427.301392 34515.213018 5579.079942 C 34364.758711 6105.415356 34016.992289 6588.45823 33792.787867 7093.096442 C 33775.165257 7132.518119 33685.21864 7238.864969 33685.21864 7269.831867 " stroke="#000000" stroke-width="58.619999" stroke-opacity="1" stroke-miterlimit="10"/><path stroke-linecap="round" transform="matrix(0.0383474, 0, 0, -0.0383474, -1145.064715, 380.818201)" fill="none" stroke-linejoin="round" d="M 34280.312793 3354.454608 C 34289.073166 3580.79819 34471.920479 3700.387464 34653.036091 3787.583731 C 34768.754502 3843.303776 34884.880372 3870.807272 34994.690625 3925.712398 C 35414.068 4135.350153 35924.410641 4310.353877 36288.781025 4601.789065 " stroke="#000000" stroke-width="58.619999" stroke-opacity="1" stroke-miterlimit="10"/><path stroke-linecap="round" transform="matrix(0.0383474, 0, 0, -0.0383474, -1145.064715, 380.818201)" fill="none" stroke-linejoin="round" d="M 35208.708566 5964.434475 C 35203.207867 5957.711398 35214.005536 5975.232143 35223.988286 5982.770138 C 35243.546327 5997.540534 35262.900639 6014.246361 35281.847492 6030.442864 C 35332.779891 6074.142863 35400.316252 6108.573165 35458.582917 6142.596007 C 35626.048646 6240.284349 35837.010643 6240.386214 36023.11763 6275.223975 C 36173.877532 6303.542389 36329.832538 6315.766165 36482.120412 6339.806257 C 36598.755606 6358.243786 36715.696395 6391.757304 36832.331589 6411.213481 C 36898.543708 6422.214879 36966.589394 6416.612315 37032.903378 6428.224902 C 37282.064675 6472.230495 37524.910354 6533.145645 37750.439018 6645.909977 " stroke="#000000" stroke-width="58.619999" stroke-opacity="1" stroke-miterlimit="10"/><path fill="#a8797e" d="M 245.050781 90.9375 C 233.617188 59.679688 242.390625 49.792969 253.742188 21.417969 C 255.355469 17.378906 256.894531 12.945312 259.050781 9.347656 C 259.421875 8.730469 260.019531 7.414062 260.019531 7.414062 C 260.019531 7.414062 260.503906 18.035156 260.503906 23.347656 C 260.503906 42.636719 252.128906 62.644531 249.394531 81.765625 C 248.90625 85.199219 245.050781 88.152344 245.050781 90.9375 " fill-opacity="1" fill-rule="evenodd"/><path fill="#a8797e" d="M 243.695312 90.9375 C 246.519531 79.242188 286.199219 31.617188 297.867188 31.617188 C 299.75 31.617188 296.53125 35.140625 295.933594 36.925781 C 293.539062 44.117188 290.867188 52.371094 286.113281 58.179688 C 278.316406 67.707031 270.464844 73.53125 260.695312 80.859375 C 257.085938 83.566406 253.59375 85.132812 249.589844 87.136719 C 248.125 87.863281 243.609375 90.9375 243.695312 90.9375 " fill-opacity="1" fill-rule="evenodd"/><path fill="#a8797e" d="M 219.359375 75.316406 C 228.257812 87.78125 246.097656 91.890625 245.796875 90.757812 C 242.289062 77.800781 232.675781 67.765625 225.832031 60.535156 C 220.976562 55.410156 216.507812 48.941406 214.304688 42.335938 C 213.144531 38.851562 212.253906 37.140625 211.582031 36.664062 C 209.074219 34.886719 209.625 50.386719 210.441406 54.886719 C 211.695312 61.78125 215.296875 69.632812 219.359375 75.316406 " fill-opacity="1" fill-rule="evenodd"/><path fill="#a8797e" d="M 243.308594 89.789062 C 241.855469 89.066406 244.988281 88.46875 246.691406 87.617188 C 260.425781 80.75 270.453125 79.953125 286.113281 79.222656 C 289.59375 79.0625 303.363281 73.554688 302.566406 74.972656 C 300.480469 78.675781 295.65625 83.273438 288.027344 86.234375 C 277.023438 90.503906 262.105469 92.445312 257.3125 92.445312 C 250.066406 92.445312 242.054688 89.789062 243.308594 89.789062 " fill-opacity="1" fill-rule="evenodd"/><path fill="#a8797e" d="M 145.25 103.824219 C 140.941406 102.703125 125.578125 85.6875 123.648438 80.976562 C 115.574219 61.226562 119.015625 39.992188 118.601562 39.578125 C 118.191406 39.164062 128.003906 49.042969 130.039062 52.160156 C 137.859375 64.132812 141.980469 73.035156 144.625 83.617188 C 145.570312 87.402344 146.339844 91.144531 146.339844 95.058594 C 146.339844 97.867188 147.871094 104.507812 145.25 103.824219 " fill-opacity="1" fill-rule="evenodd"/><path fill="#a8797e" d="M 146.339844 102.777344 C 144.230469 102.234375 145.25 90.066406 145.25 87.851562 C 145.25 83.324219 145.355469 78.121094 146.785156 73.828125 C 149.144531 66.753906 153.84375 59.476562 156.523438 52.507812 C 157.769531 49.261719 159.542969 42.390625 162.066406 39.863281 C 162.539062 39.390625 162.925781 55.726562 162.925781 60.742188 C 162.925781 69.882812 155.625 98.136719 146.339844 102.777344 " fill-opacity="1" fill-rule="evenodd"/><path fill="#a8797e" d="M 146.785156 101.742188 C 139.941406 100.089844 132.417969 93.078125 125.820312 89.78125 C 121.140625 87.4375 114.800781 86.503906 109.808594 84.632812 C 106.476562 83.382812 99.753906 78.585938 99.800781 78.910156 C 103.621094 106.574219 140.878906 107.644531 146.785156 101.742188 " fill-opacity="1" fill-rule="evenodd"/><path fill="#a8797e" d="M 145.121094 104.617188 C 143.949219 104.527344 151.894531 95.039062 152.808594 93.941406 C 155.316406 90.9375 178.832031 73.023438 179.878906 73.023438 C 180.535156 73.023438 177.742188 78.511719 175.480469 82.710938 C 171.074219 90.894531 169.347656 94.015625 161.792969 99.183594 C 159.5625 100.703125 149.964844 104.996094 145.121094 104.617188 " fill-opacity="1" fill-rule="evenodd"/><path fill="#a8797e" d="M 246.695312 207.0625 C 245.101562 205.414062 248.699219 199.628906 249.558594 198.488281 C 255.046875 191.164062 263.386719 186.890625 270.996094 182.046875 C 272.527344 181.074219 274.105469 180.164062 275.644531 179.1875 C 275.789062 179.097656 278.964844 176.617188 279.394531 177.042969 C 280.136719 177.78125 275.316406 185.265625 274.214844 186.695312 C 269.308594 193.070312 262.796875 198.714844 255.808594 202.597656 C 253.304688 203.988281 249.554688 205.921875 246.695312 207.0625 " fill-opacity="1" fill-rule="evenodd"/><path fill="#a8797e" d="M 247.035156 207.0625 C 247.578125 205.921875 248.402344 204.699219 248.644531 204.203125 C 250.144531 201.109375 250.792969 196.457031 251.105469 194.253906 C 251.800781 189.398438 251.082031 186.066406 250.429688 181.152344 C 250.140625 178.980469 249.539062 173.113281 249.539062 173.113281 C 249.539062 173.113281 244.925781 177.921875 243.996094 180.082031 C 241.035156 186.996094 241.242188 194.457031 243.996094 201.34375 C 244.378906 202.304688 245.984375 207.0625 247.035156 207.0625 " fill-opacity="1" fill-rule="evenodd"/><path fill="#a8797e" d="M 246.484375 206.71875 C 245.496094 207.132812 248.675781 203.878906 249.03125 203.703125 C 251.148438 202.640625 253.429688 202.179688 255.644531 201.734375 C 259.960938 200.871094 268.234375 202.015625 272.4375 202.988281 C 274.660156 203.5 276.96875 203.34375 279.230469 203.34375 C 279.828125 203.34375 281.019531 203.164062 281.019531 203.164062 C 281.019531 203.164062 278.871094 205.230469 277.621094 206.023438 C 275.007812 207.6875 272.207031 209.515625 268.035156 210.480469 C 263.453125 211.535156 258.585938 211.003906 253.917969 209.839844 C 251.582031 209.253906 249.101562 207.910156 246.484375 206.71875 " fill-opacity="1" fill-rule="evenodd"/><path fill="#a8797e" d="M 246.300781 205.230469 C 246.175781 205.246094 248.109375 206.832031 248.617188 207.21875 C 250.507812 208.636719 252.71875 210.066406 254.335938 211.683594 C 256.980469 214.328125 257.710938 216.695312 258.671875 221.1875 C 258.980469 222.613281 258.996094 229.246094 258.996094 229.246094 C 258.996094 229.246094 255.144531 224.394531 251.835938 221.152344 C 248.34375 217.738281 246.300781 210.109375 246.300781 205.230469 " fill-opacity="1" fill-rule="evenodd"/><path fill="#c69fa4" d="M 300.734375 125.832031 C 301.292969 124.398438 302.34375 123.511719 303.257812 121.980469 C 309.660156 111.316406 325.679688 107.984375 336.554688 104.785156 C 337.78125 104.425781 348.320312 100.453125 348.902344 101.035156 C 351.304688 103.433594 340.652344 112.1875 339.523438 113.070312 C 329.160156 121.214844 313.945312 125.832031 300.734375 125.832031 " fill-opacity="1" fill-rule="evenodd"/><path fill="#c69fa4" d="M 301.542969 127.503906 C 309.453125 115.914062 312.722656 108.601562 311.128906 95.828125 C 310.707031 92.453125 309.726562 89.164062 309.253906 85.820312 C 309.253906 85.816406 309.089844 84.882812 308.9375 84.882812 C 308.796875 84.882812 303.015625 93.101562 302.53125 93.953125 C 296.894531 103.816406 296.378906 117.167969 301.542969 127.503906 " fill-opacity="1" fill-rule="evenodd"/><path fill="#c69fa4" d="M 300.734375 125.410156 C 300.917969 123.613281 306.628906 126.25 307.839844 126.25 C 317.425781 126.25 324.253906 130.789062 332.382812 134.847656 C 334.054688 135.679688 335.273438 137.035156 336.917969 137.972656 C 337.007812 138.027344 339.265625 139.839844 339.257812 139.847656 C 337.980469 141.128906 333.75 141.527344 332.070312 141.722656 C 324.148438 142.65625 312.445312 139.472656 305.960938 134.847656 C 304.03125 133.464844 300.734375 128.457031 300.734375 125.410156 " fill-opacity="1" fill-rule="evenodd"/><path fill="#c69fa4" d="M 301.292969 125.832031 C 301.160156 126.609375 303.316406 128.0625 305.308594 131.460938 C 307.484375 135.171875 308.601562 138.640625 310.09375 142.613281 C 311.453125 146.246094 311.894531 151.546875 311.191406 155.433594 C 310.894531 157.050781 310.09375 159.003906 310.09375 160.59375 C 310.09375 160.910156 309.9375 161.53125 309.9375 161.53125 C 309.9375 161.53125 309.78125 160.984375 309.625 160.75 C 308.847656 159.582031 308.183594 158.285156 307.28125 157.152344 C 305.449219 154.863281 303.28125 153.203125 301.496094 150.746094 C 296.472656 143.835938 298.6875 133.648438 301.292969 125.832031 " fill-opacity="1" fill-rule="evenodd"/><path stroke-linecap="round" transform="matrix(0.0383474, 0, 0, -0.0383474, -1145.064715, 380.818201)" fill="none" stroke-linejoin="round" d="M 36285.623216 7621.774746 C 36283.891514 7622.08034 36314.756548 7667.002717 36320.359112 7674.235117 C 36348.983121 7712.536281 36380.459343 7746.151665 36412.343025 7782.008074 C 36503.410155 7884.382196 36618.109918 7976.060515 36725.067957 8061.728811 C 36782.519703 8107.56797 36857.084735 8156.463073 36904.146272 8212.896172 C 36948.25373 8265.764002 36996.843239 8314.76097 37043.089857 8365.795234 C 37110.626219 8440.054672 37166.040669 8525.519238 37230.826681 8602.121567 C 37305.493578 8690.438347 37364.677026 8791.691957 37446.168865 8873.183795 " stroke="#000000" stroke-width="27.459999" stroke-opacity="1" stroke-miterlimit="10"/><path stroke-linecap="round" transform="matrix(0.0383474, 0, 0, -0.0383474, -1145.064715, 380.818201)" fill="none" stroke-linejoin="round" d="M 36564.834629 9302.543921 C 36555.361202 9213.310357 36512.476122 9123.261876 36490.473326 9035.454419 C 36429.456311 8791.386362 36340.732072 8555.365624 36291.123915 8306.815516 C 36267.287552 8187.735566 36256.693613 8054.190816 36256.693613 7932.666111 C 36256.693613 7900.578699 36241.312029 7837.931848 36254.248858 7812.05819 C 36276.557249 7767.339543 36281.24303 7680.754464 36281.24303 7629.92393 " stroke="#000000" stroke-width="27.459999" stroke-opacity="1" stroke-miterlimit="10"/><path stroke-linecap="round" transform="matrix(0.0383474, 0, 0, -0.0383474, -1145.064715, 380.818201)" fill="none" stroke-linejoin="round" d="M 36276.760978 7616.375912 C 36279.816922 7632.063091 36338.694776 7638.582438 36353.770766 7641.842111 C 36430.780554 7658.242344 36514.920877 7654.880806 36593.051178 7659.464721 C 36718.039285 7666.900852 36850.667253 7668.938148 36972.497552 7699.395722 C 36987.369813 7703.062855 37003.260721 7698.988263 37018.234847 7700.82183 C 37056.94347 7705.71134 37096.365147 7712.536281 37134.971906 7718.546305 C 37218.806635 7731.788728 37300.196609 7760.107142 37378.632504 7789.444204 C 37419.684017 7804.927654 37461.957909 7815.623458 37499.647884 7838.135578 " stroke="#000000" stroke-width="27.459999" stroke-opacity="1" stroke-miterlimit="10"/><path stroke-linecap="round" transform="matrix(0.0383474, 0, 0, -0.0383474, -1145.064715, 380.818201)" fill="none" stroke-linejoin="round" d="M 35384.527209 8870.433446 C 35395.528607 8777.227155 35394.713688 8681.270515 35422.319049 8589.286602 C 35494.643056 8348.478218 35648.153307 8153.508994 35848.62323 8007.740467 C 35924.308776 7952.733476 35981.251198 7882.54863 36066.20644 7840.071009 C 36133.131613 7806.659355 36170.414129 7724.250733 36232.144197 7683.097355 C 36241.923217 7676.578008 36258.32345 7631.451902 36262.398042 7631.451902 " stroke="#000000" stroke-width="27.459999" stroke-opacity="1" stroke-miterlimit="10"/><path stroke-linecap="round" transform="matrix(0.0383474, 0, 0, -0.0383474, -1145.064715, 380.818201)" fill="none" stroke-linejoin="round" d="M 37886.632254 7539.366124 C 37883.983769 7485.78524 37814.613841 7385.652143 37806.260928 7311.087111 C 37792.814774 7189.460541 37794.240881 7063.96311 37777.02573 6943.355188 C 37766.533656 6870.114398 37778.349973 6780.880835 37745.040184 6714.159392 " stroke="#000000" stroke-width="27.459999" stroke-opacity="1" stroke-miterlimit="10"/><path stroke-linecap="round" transform="matrix(0.0383474, 0, 0, -0.0383474, -1145.064715, 380.818201)" fill="none" stroke-linejoin="round" d="M 37744.836454 6700.203914 C 37746.262561 6699.083401 37788.230858 6733.513703 37795.565124 6738.097619 C 37844.867686 6768.860788 37902.523162 6799.522093 37958.243207 6818.061486 C 38188.661381 6894.867544 38434.970464 6957.41253 38643.080247 7089.836768 C 38687.187705 7117.951453 38733.943647 7139.648655 38776.319404 7169.800635 C 38782.533156 7174.282686 38821.649239 7182.533735 38821.649239 7191.090378 " stroke="#000000" stroke-width="27.459999" stroke-opacity="1" stroke-miterlimit="10"/><path stroke-linecap="round" transform="matrix(0.0383474, 0, 0, -0.0383474, -1145.064715, 380.818201)" fill="none" stroke-linejoin="round" d="M 37747.179345 6711.409042 C 37788.638318 6463.673852 38156.37024 6444.727 38341.866038 6391.65544 C 38391.37233 6377.496233 38461.047852 6373.8291 38499.247152 6335.731665 " stroke="#000000" stroke-width="27.459999" stroke-opacity="1" stroke-miterlimit="10"/><path stroke-linecap="round" transform="matrix(0.0383474, 0, 0, -0.0383474, -1145.064715, 380.818201)" fill="none" stroke-linejoin="round" d="M 37747.892398 6715.17804 C 37740.558133 6712.42769 37745.040184 6669.33888 37745.040184 6663.430722 C 37745.040184 6612.905782 37748.809181 6554.944712 37761.032957 6506.253338 C 37783.239483 6417.223504 37761.94974 6323.915349 37784.971185 6231.829571 C 37815.0213 6111.527244 37915.561856 6021.886221 37915.561856 5893.332845 " stroke="#000000" stroke-width="27.459999" stroke-opacity="1" stroke-miterlimit="10"/><path stroke-linecap="round" transform="matrix(0.0383474, 0, 0, -0.0383474, -1145.064715, 380.818201)" fill="none" stroke-linejoin="round" d="M 36318.729275 5285.913052 C 36268.408065 5197.698137 36248.035105 5069.75595 36256.693613 4966.668774 C 36259.851422 4927.348961 36279.715058 4892.613065 36283.993379 4854.108171 C 36292.346293 4779.033815 36292.040698 4698.866218 36292.040698 4625.829158 " stroke="#000000" stroke-width="27.459999" stroke-opacity="1" stroke-miterlimit="10"/><path stroke-linecap="round" transform="matrix(0.0383474, 0, 0, -0.0383474, -1145.064715, 380.818201)" fill="none" stroke-linejoin="round" d="M 36293.56867 4627.662724 C 36293.976129 4641.108878 36332.175429 4663.519133 36341.954449 4670.853399 C 36395.331604 4710.886265 36452.78335 4742.260623 36507.484747 4780.154328 C 36592.03253 4838.624722 36684.423902 4885.788124 36769.684738 4942.628681 C 36890.801984 5023.407466 36984.110139 5134.440097 37084.854425 5235.286247 " stroke="#000000" stroke-width="27.459999" stroke-opacity="1" stroke-miterlimit="10"/><path stroke-linecap="round" transform="matrix(0.0383474, 0, 0, -0.0383474, -1145.064715, 380.818201)" fill="none" stroke-linejoin="round" d="M 36289.799673 4620.634053 C 36285.623216 4621.856431 36305.690581 4630.107479 36308.135336 4630.616803 C 36322.702003 4633.469018 36336.45375 4639.071582 36351.631605 4640.192094 C 36401.443492 4644.062957 36452.070297 4639.988365 36499.539293 4624.199321 C 36533.562135 4612.790464 36569.011085 4611.87368 36603.950711 4604.845009 C 36689.313412 4587.833588 36782.621568 4576.934055 36869.410376 4585.592562 C 36904.451867 4589.055966 36973.210606 4581.619835 36999.593588 4608.104683 " stroke="#000000" stroke-width="27.459999" stroke-opacity="1" stroke-miterlimit="10"/><path stroke-linecap="round" transform="matrix(0.0383474, 0, 0, -0.0383474, -1145.064715, 380.818201)" fill="none" stroke-linejoin="round" d="M 36287.151188 4621.550836 C 36320.766571 4610.753168 36352.548389 4549.532424 36364.364705 4519.686038 C 36382.08918 4475.374851 36405.823678 4430.859934 36420.695939 4386.141287 C 36430.780554 4355.785577 36439.642791 4323.494436 36456.144889 4296.092805 C 36483.037195 4251.170429 36505.549316 4212.054346 36525.209222 4162.649919 C 36531.219245 4147.777659 36546.091506 4131.275561 36546.091506 4114.366005 " stroke="#000000" stroke-width="27.459999" stroke-opacity="1" stroke-miterlimit="10"/><path stroke-linecap="round" transform="matrix(0.0383474, 0, 0, -0.0383474, -1145.064715, 380.818201)" fill="none" stroke-linejoin="round" d="M 33681.551508 7275.230702 C 33678.699293 7505.241417 33836.284136 7747.985231 33909.015603 7966.281494 C 33960.559191 8121.014123 33954.956627 8405.420641 34022.798582 8540.900823 " stroke="#000000" stroke-width="27.459999" stroke-opacity="1" stroke-miterlimit="10"/><path stroke-linecap="round" transform="matrix(0.0383474, 0, 0, -0.0383474, -1145.064715, 380.818201)" fill="none" stroke-linejoin="round" d="M 33681.245913 7270.95238 C 33712.824001 7282.463102 33750.310247 7323.922075 33780.665956 7342.155874 C 33817.541014 7364.260535 33861.037282 7376.993635 33900.357095 7391.764031 C 33992.035413 7426.092468 34089.62189 7499.740717 34162.86268 7563.813676 C 34255.050323 7644.490596 34314.030041 7741.364019 34398.985283 7826.319261 " stroke="#000000" stroke-width="27.459999" stroke-opacity="1" stroke-miterlimit="10"/><path stroke-linecap="round" transform="matrix(0.0383474, 0, 0, -0.0383474, -1145.064715, 380.818201)" fill="none" stroke-linejoin="round" d="M 33052.128918 8618.521799 C 33055.490456 8572.071451 33225.910264 8383.315979 33247.91306 8309.769595 C 33354.972964 7952.835341 33422.61119 7548.635821 33680.634724 7290.714151 " stroke="#000000" stroke-width="27.459999" stroke-opacity="1" stroke-miterlimit="10"/><path stroke-linecap="round" transform="matrix(0.0383474, 0, 0, -0.0383474, -1145.064715, 380.818201)" fill="none" stroke-linejoin="round" d="M 32595.163432 7708.05423 C 32623.78744 7615.764723 32763.749673 7552.506683 32837.703517 7505.343281 C 33008.734514 7396.551677 33179.663645 7357.333729 33379.31865 7332.376854 C 33483.32261 7319.338159 33574.593469 7277.879186 33677.375051 7277.879186 " stroke="#000000" stroke-width="27.459999" stroke-opacity="1" stroke-miterlimit="10"/><path stroke-linecap="round" transform="matrix(0.0383474, 0, 0, -0.0383474, -1145.064715, 380.818201)" fill="none" stroke-linejoin="round" d="M 33427.806295 959.511331 C 33384.921214 1026.843963 33568.277852 2376.043219 33452.661305 2607.581906 C 33390.625643 2732.060689 33442.169231 2880.783295 33379.420515 3006.484456 C 33258.405135 3248.922677 33221.326348 3579.168353 33107.034044 3846.35972 C 33036.441739 4011.380693 32903.915636 4146.045957 32834.443843 4308.316581 C 32802.356432 4383.594667 32807.857131 4472.828231 32782.187202 4549.838018 C 32737.468555 4684.197687 32604.840588 4784.127055 32551.769028 4917.264346 C 32415.168333 5259.12261 31975.417998 6344.492038 31975.417998 6638.98317 " stroke="#000000" stroke-width="58.619999" stroke-opacity="1" stroke-miterlimit="10"/><path stroke-linecap="round" transform="matrix(0.0383474, 0, 0, -0.0383474, -1145.064715, 380.818201)" fill="none" stroke-linejoin="round" d="M 32877.838248 4228.454579 C 32793.39233 4391.030797 32917.972978 4539.447809 32943.439178 4590.278343 C 33078.104441 4860.423789 33312.800937 5090.638233 33473.543589 5348.356173 C 33596.69813 5545.770153 33697.646146 5817.6473 33860.731688 5981.140302 " stroke="#000000" stroke-width="58.619999" stroke-opacity="1" stroke-miterlimit="10"/><path stroke-linecap="round" transform="matrix(0.0383474, 0, 0, -0.0383474, -1145.064715, 380.818201)" fill="none" stroke-linejoin="round" d="M 33281.630309 3272.55531 C 33222.548726 3399.173255 33086.966679 3485.656468 32970.738944 3502.260431 C 32311.775562 3596.587234 31691.317075 3889.855989 31111.197047 4180.578124 " stroke="#000000" stroke-width="58.619999" stroke-opacity="1" stroke-miterlimit="10"/><path stroke-linecap="round" transform="matrix(0.0383474, 0, 0, -0.0383474, -1145.064715, 380.818201)" fill="none" stroke-linejoin="round" d="M 33405.396039 2948.421521 C 33335.109328 3328.784679 33674.217242 3557.980475 33812.651503 3765.988394 C 33897.097421 3892.810068 33978.487395 4014.945961 34068.943336 4137.896773 C 34101.743801 4182.41169 34122.931679 4245.160406 34161.742168 4283.970894 " stroke="#000000" stroke-width="58.619999" stroke-opacity="1" stroke-miterlimit="10"/><path fill="#c69fa4" d="M 78.257812 128.148438 C 75.703125 127.773438 75.285156 116.597656 75.113281 114.933594 C 73.875 102.9375 79.472656 89.628906 85.085938 78.902344 C 85.675781 77.773438 90.152344 66.097656 90.234375 66.132812 C 92.214844 67.007812 92.261719 73.816406 92.488281 75.496094 C 93.960938 86.519531 93.144531 100.433594 87.984375 110.675781 C 86.292969 114.03125 84.898438 117.710938 82.832031 120.890625 C 82.394531 121.570312 77.878906 128.148438 78.257812 128.148438 " fill-opacity="1" fill-rule="evenodd"/><path fill="#c69fa4" d="M 77.601562 128.140625 C 75.390625 128.5 85.699219 118.84375 87.214844 117.699219 C 96.234375 110.882812 106.367188 106.15625 117.457031 102.664062 C 118.152344 102.445312 125.652344 99.109375 126.144531 99.542969 C 126.472656 99.832031 119.894531 109.488281 116.929688 112.101562 C 106.335938 121.441406 93.507812 128.140625 77.601562 128.140625 " fill-opacity="1" fill-rule="evenodd"/><path fill="#c69fa4" d="M 78.449219 126.996094 C 78.8125 120.871094 72.828125 114.628906 69.632812 109.453125 C 67.4375 105.914062 63.554688 103.417969 60.941406 100.09375 C 57.277344 95.425781 49.351562 83.523438 49.21875 83.445312 C 46.457031 81.859375 49.226562 94.878906 50.984375 103.058594 C 53.1875 113.363281 64.683594 126.996094 78.449219 126.996094 " fill-opacity="1" fill-rule="evenodd"/><path fill="#c69fa4" d="M 76.84375 125.097656 C 69.144531 121.613281 57.820312 122.050781 49.851562 122.28125 C 43.433594 122.464844 30.871094 120.800781 30.871094 120.800781 C 30.871094 120.800781 36.417969 127.433594 43.140625 130.472656 C 48.679688 132.976562 54.585938 133.929688 60.667969 132.984375 C 77.621094 130.355469 81.019531 126.984375 76.84375 125.097656 " fill-opacity="1" fill-rule="evenodd"/><path fill="#c69fa4" d="M 151.585938 153.496094 C 142.074219 150.65625 149.144531 128.375 152.253906 123.375 C 155.0625 118.859375 161.171875 110.902344 163.117188 107.3125 C 163.164062 107.226562 163.355469 107.242188 163.429688 107.3125 C 164.535156 108.328125 164.050781 114.984375 164.050781 116.179688 C 164.050781 118.945312 164.050781 121.710938 164.050781 124.476562 C 164.050781 128.902344 162.269531 133.363281 160.945312 137.636719 C 159.082031 143.652344 154.539062 148.058594 151.585938 153.496094 " fill-opacity="1" fill-rule="evenodd"/><path fill="#c69fa4" d="M 149.507812 152.417969 C 150.1875 144.394531 167.453125 130.519531 179.988281 126.496094 C 183.121094 125.488281 186.308594 124.269531 189.511719 123.582031 C 190.976562 123.269531 193.863281 120.816406 193.863281 122.417969 C 193.863281 126.078125 172.6875 144.738281 167.222656 147.828125 C 164.316406 149.472656 158.242188 151.605469 155.007812 152.546875 C 152.816406 153.1875 149.339844 154.386719 149.507812 152.417969 " fill-opacity="1" fill-rule="evenodd"/><path fill="#c69fa4" d="M 147.003906 152.585938 C 149.480469 150.199219 161.945312 149.222656 167.8125 149.957031 C 170.621094 150.308594 173.429688 150.714844 176.210938 151.269531 C 178.109375 151.652344 189.070312 154.722656 189.070312 157.582031 C 189.070312 158.363281 183.703125 158.011719 183.042969 158.257812 C 179.71875 159.507812 174.773438 160.773438 171.265625 161.09375 C 162.027344 161.933594 144.726562 154.773438 147.003906 152.585938 " fill-opacity="1" fill-rule="evenodd"/><path fill="#c69fa4" d="M 149.5 153.167969 C 149.585938 151.898438 147.730469 147.855469 146.949219 145.59375 C 144.59375 138.753906 143.851562 134.496094 137.191406 129.539062 C 133.546875 126.832031 126.148438 120.683594 126.15625 120.738281 C 127.273438 129.261719 128.960938 135.664062 131.988281 140.859375 C 135.507812 146.90625 137.691406 149.320312 143.75 152.355469 C 144.0625 152.515625 149.429688 154.195312 149.5 153.167969 " fill-opacity="1" fill-rule="evenodd"/><path fill="#a8797e" d="M 48.492188 222.269531 C 39.605469 226.828125 23.785156 223.238281 16.722656 217.921875 C 14.511719 216.253906 4.574219 207.027344 4.574219 207.027344 C 4.574219 207.027344 19.972656 204.714844 23.214844 205.726562 C 30.214844 207.917969 48.492188 214.144531 48.492188 222.269531 " fill-opacity="1" fill-rule="evenodd"/><path fill="#a8797e" d="M 48.492188 222.101562 C 47.621094 221.84375 43.972656 218.503906 43.308594 217.769531 C 37.285156 211.105469 35.519531 200.679688 36.796875 192.441406 C 37.925781 185.175781 38.53125 183.027344 38.617188 183.027344 C 39.011719 183.027344 41.191406 184.847656 41.488281 185.046875 C 50.6875 191.203125 50.601562 202.148438 50.601562 211.492188 C 50.601562 214.351562 50.277344 216.566406 49.558594 219.339844 C 49.382812 220.03125 48.492188 222.15625 48.492188 222.101562 " fill-opacity="1" fill-rule="evenodd"/><path fill="#a8797e" d="M 48.492188 220.144531 C 45.605469 219.28125 37.570312 222.378906 34.757812 223.183594 C 29.425781 224.710938 16.21875 236.300781 16.21875 241.660156 C 16.21875 243.660156 24.167969 241.695312 24.8125 241.660156 C 29.988281 241.367188 37.519531 237.09375 39.839844 234.878906 C 42.542969 232.292969 48.492188 223.902344 48.492188 220.144531 " fill-opacity="1" fill-rule="evenodd"/><path fill="#a8797e" d="M 47.363281 220.054688 C 47.683594 219.105469 43.328125 229.515625 42.445312 231.1875 C 40.269531 235.304688 39.316406 240.160156 39.316406 244.632812 C 39.316406 246.597656 41.402344 250.238281 41.402344 250.238281 C 41.402344 250.238281 44.554688 246.609375 45.828125 244.632812 C 48.421875 240.621094 50.085938 233.640625 50.519531 229.167969 C 50.726562 227.046875 50.550781 224.945312 49.996094 222.894531 C 49.875 222.4375 47.363281 219.671875 47.363281 220.054688 " fill-opacity="1" fill-rule="evenodd"/><path fill="#a8797e" d="M 163.953125 214.949219 C 162.167969 214.613281 165.019531 206.546875 165.535156 205.683594 C 169.121094 199.640625 178.023438 191.441406 183.433594 186.789062 C 184.222656 186.109375 187.78125 182.171875 189.011719 182.171875 L 189.304688 182.171875 C 190.433594 183.28125 187.929688 188.664062 187.542969 189.671875 C 184.992188 196.363281 181.207031 205.269531 175.070312 209.578125 C 173.011719 211.023438 170.902344 212.433594 168.613281 213.472656 C 167.753906 213.863281 166.949219 214.300781 166.121094 214.625 C 165.980469 214.679688 163.625 214.949219 163.953125 214.949219 " fill-opacity="1" fill-rule="evenodd"/><path fill="#a8797e" d="M 164.238281 216.386719 C 165.457031 211.539062 167.214844 201.332031 166.519531 196.484375 C 166.050781 193.214844 163.605469 189.035156 161.957031 186.152344 C 160.878906 184.269531 159.957031 182.328125 158.757812 180.53125 C 158.671875 180.402344 157.265625 178.195312 157.238281 178.25 C 153.90625 184.902344 154.84375 193.34375 156.476562 200.28125 C 158.023438 206.839844 158.125 212.316406 164.238281 216.386719 " fill-opacity="1" fill-rule="evenodd"/><path fill="#a8797e" d="M 162.570312 216.164062 C 169.53125 209.238281 178.4375 211.144531 187.40625 209.730469 C 190.066406 209.3125 194.800781 209.0625 198.613281 208.730469 C 198.960938 208.703125 190.472656 214.460938 187.945312 215.65625 C 179.984375 219.421875 170.113281 219.730469 162.570312 216.164062 " fill-opacity="1" fill-rule="evenodd"/><path fill="#a8797e" d="M 164.46875 216.386719 C 164.460938 216.386719 163.898438 213.71875 162.613281 211.65625 C 160.324219 207.96875 155.824219 205.792969 152.304688 203.292969 C 149.785156 201.5 146.640625 199.742188 143.847656 198.417969 C 143.503906 198.257812 139.246094 196.957031 139.246094 196.894531 C 139.246094 196.863281 139.800781 198 139.839844 198.117188 C 140.148438 198.957031 140.621094 199.914062 141.03125 200.703125 C 142.074219 202.714844 143.175781 204.871094 144.589844 206.640625 C 148.511719 211.5625 158.175781 216.386719 164.46875 216.386719 " fill-opacity="1" fill-rule="evenodd"/><path stroke-linecap="round" transform="matrix(0.0383474, 0, 0, -0.0383474, -1145.064715, 380.818201)" fill="none" stroke-linejoin="round" d="M 34070.675038 6944.781295 C 34025.345202 6696.333052 33849.220966 6482.416975 33793.602786 6232.23703 C 33780.360362 6172.544258 33762.330293 6113.055216 33754.996027 6054.279227 C 33753.468055 6042.564775 33742.059198 6012.922119 33752.347542 6002.633774 " stroke="#000000" stroke-width="27.459999" stroke-opacity="1" stroke-miterlimit="10"/><path stroke-linecap="round" transform="matrix(0.0383474, 0, 0, -0.0383474, -1145.064715, 380.818201)" fill="none" stroke-linejoin="round" d="M 33750.615841 5992.243565 C 33744.300223 5992.345429 33825.180873 6067.827245 33842.701619 6080.051021 C 33914.108842 6130.066637 33989.183199 6173.766636 34064.461285 6216.753581 C 34186.902773 6286.632832 34328.392978 6337.259637 34443.805795 6418.038422 C 34531.81698 6479.666625 34619.115113 6550.360796 34706.922569 6608.933055 " stroke="#000000" stroke-width="27.459999" stroke-opacity="1" stroke-miterlimit="10"/><path stroke-linecap="round" transform="matrix(0.0383474, 0, 0, -0.0383474, -1145.064715, 380.818201)" fill="none" stroke-linejoin="round" d="M 33751.22703 5986.131677 C 33746.031925 5989.900674 33766.710479 5979.917924 33773.026097 5976.86198 C 33792.278543 5967.184824 33812.345909 5959.646829 33832.311409 5951.090186 C 33889.457561 5926.54077 33940.288096 5917.474803 34005.175972 5917.474803 C 34126.700677 5917.474803 34270.737502 5922.262448 34392.160342 5901.991353 C 34445.028172 5893.230981 34535.484113 5860.73611 34585.601594 5860.73611 " stroke="#000000" stroke-width="27.459999" stroke-opacity="1" stroke-miterlimit="10"/><path stroke-linecap="round" transform="matrix(0.0383474, 0, 0, -0.0383474, -1145.064715, 380.818201)" fill="none" stroke-linejoin="round" d="M 33745.522601 5989.900674 C 33711.805353 5988.678297 33621.756871 6066.910462 33592.419809 6090.339366 C 33504.612353 6160.626077 33460.810489 6279.502296 33406.720281 6374.134694 C 33361.89977 6452.570589 33299.456648 6526.626298 33259.627512 6606.28457 " stroke="#000000" stroke-width="27.459999" stroke-opacity="1" stroke-miterlimit="10"/><path stroke-linecap="round" transform="matrix(0.0383474, 0, 0, -0.0383474, -1145.064715, 380.818201)" fill="none" stroke-linejoin="round" d="M 31917.660657 6676.571281 C 31878.748304 6777.621161 31921.32779 6919.111366 31942.108209 7023.319055 C 32004.347601 7334.414149 32212.355519 7668.225094 32212.355519 7981.561214 " stroke="#000000" stroke-width="27.459999" stroke-opacity="1" stroke-miterlimit="10"/><path stroke-linecap="round" transform="matrix(0.0383474, 0, 0, -0.0383474, -1145.064715, 380.818201)" fill="none" stroke-linejoin="round" d="M 31912.974876 6679.932819 C 32238.127313 6616.26732 32540.5639 6923.593417 32790.743845 7084.437934 C 32854.816803 7125.591313 32927.853864 7150.344459 32994.677171 7183.857977 " stroke="#000000" stroke-width="27.459999" stroke-opacity="1" stroke-miterlimit="10"/><path stroke-linecap="round" transform="matrix(0.0383474, 0, 0, -0.0383474, -1145.064715, 380.818201)" fill="none" stroke-linejoin="round" d="M 31192.077697 7582.556799 C 31238.222451 7516.650274 31244.639933 7414.479881 31258.391681 7373.428367 C 31336.827576 7138.426277 31504.802629 6930.316494 31707.309848 6795.345636 C 31785.440149 6743.292724 31836.780007 6691.952865 31936.60751 6691.952865 " stroke="#000000" stroke-width="27.459999" stroke-opacity="1" stroke-miterlimit="10"/><path stroke-linecap="round" transform="matrix(0.0383474, 0, 0, -0.0383474, -1145.064715, 380.818201)" fill="none" stroke-linejoin="round" d="M 30872.42596 6689.915569 C 30882.714304 6663.328857 31113.947397 6636.029091 31148.581428 6627.370583 C 31364.127342 6573.484105 31518.961836 6610.257297 31733.183507 6637.047739 C 31801.840381 6645.604382 31860.208911 6672.598554 31930.190027 6672.598554 " stroke="#000000" stroke-width="27.459999" stroke-opacity="1" stroke-miterlimit="10"/><path stroke-linecap="round" transform="matrix(0.0383474, 0, 0, -0.0383474, -1145.064715, 380.818201)" fill="none" stroke-linejoin="round" d="M 30901.966751 5067.922383 C 30902.57794 5058.143363 30925.395655 5039.19651 30929.673977 5030.639867 C 30948.518964 4993.153621 30957.890526 4931.729148 30961.557658 4890.16831 C 30978.670945 4702.431486 30955.140176 4500.026132 31025.528752 4324.105625 C 31033.576071 4303.732665 31042.336444 4262.579286 31057.412434 4247.503296 " stroke="#000000" stroke-width="27.459999" stroke-opacity="1" stroke-miterlimit="10"/><path stroke-linecap="round" transform="matrix(0.0383474, 0, 0, -0.0383474, -1145.064715, 380.818201)" fill="none" stroke-linejoin="round" d="M 31057.616163 4249.336863 C 31051.708005 4250.151781 31042.030849 4204.108892 31036.122691 4194.329872 C 31015.749731 4160.307029 30972.660922 4132.192344 30942.508941 4107.031739 C 30896.975376 4069.138034 30835.143444 4044.690483 30785.025963 4011.278829 C 30706.488203 3959.022187 30628.663497 3905.543168 30550.940656 3851.656689 C 30515.084247 3826.903543 30429.619681 3766.192123 30429.619681 3715.463454 " stroke="#000000" stroke-width="27.459999" stroke-opacity="1" stroke-miterlimit="10"/><path stroke-linecap="round" transform="matrix(0.0383474, 0, 0, -0.0383474, -1145.064715, 380.818201)" fill="none" stroke-linejoin="round" d="M 31051.80987 4250.253646 C 31054.56022 4252.290942 31073.608937 4226.519148 31075.748098 4222.037097 C 31094.185626 4185.16204 31100.093784 4153.380223 31100.093784 4111.51379 C 31100.093784 4011.075099 31065.969077 3921.026617 31031.64064 3827.412867 C 31015.342272 3783.203545 30995.478636 3741.337113 30986.20894 3694.683035 C 30978.467215 3656.076276 30966.243439 3617.775112 30959.724092 3578.659029 C 30957.381202 3564.805417 30955.85323 3551.664858 30954.223393 3537.70938 C 30953.612204 3533.532924 30953.10288 3513.873018 30953.10288 3516.725232 " stroke="#000000" stroke-width="27.459999" stroke-opacity="1" stroke-miterlimit="10"/><path stroke-linecap="round" transform="matrix(0.0383474, 0, 0, -0.0383474, -1145.064715, 380.818201)" fill="none" stroke-linejoin="round" d="M 30089.696848 4498.396295 C 30098.660951 4504.100724 30118.218992 4485.357601 30127.081229 4481.792333 C 30166.910366 4465.901424 30206.637637 4459.687672 30247.89288 4450.417975 C 30327.347423 4432.795365 30412.2008 4432.6935 30491.960937 4416.802591 C 30582.926203 4398.568792 30667.57585 4342.645018 30747.539717 4298.231966 C 30777.997292 4281.322409 30814.26116 4275.312386 30848.487732 4270.422876 C 30886.585167 4264.922177 30923.867683 4252.189077 30961.252064 4245.975324 C 30983.051131 4242.308192 31012.388193 4241.289544 31034.390989 4241.289544 C 31042.132714 4241.289544 31049.874439 4239.659707 31057.616163 4239.048518 C 31061.487026 4238.742924 31073.099613 4239.048518 31069.330615 4239.048518 " stroke="#000000" stroke-width="27.459999" stroke-opacity="1" stroke-miterlimit="10"/><path stroke-linecap="round" transform="matrix(0.0383474, 0, 0, -0.0383474, -1145.064715, 380.818201)" fill="none" stroke-linejoin="round" d="M 34153.592984 4327.365298 C 34161.436573 4426.989071 34253.318621 4519.889767 34323.605332 4584.675779 C 34396.947987 4652.41587 34478.94915 4716.794423 34545.161269 4791.257591 C 34579.591571 4829.966214 34606.687607 4877.537075 34636.737723 4919.505372 C 34662.000193 4954.852457 34699.588304 4998.246861 34713.441916 5039.40024 C 34717.516508 5051.72588 34736.768955 5065.273899 34736.768955 5077.701404 " stroke="#000000" stroke-width="27.459999" stroke-opacity="1" stroke-miterlimit="10"/><path stroke-linecap="round" transform="matrix(0.0383474, 0, 0, -0.0383474, -1145.064715, 380.818201)" fill="none" stroke-linejoin="round" d="M 34157.463846 4320.744086 C 34182.318857 4337.042454 34223.981559 4335.820077 34253.726081 4338.264832 C 34338.579458 4345.293503 34425.266401 4326.855974 34508.489942 4333.273457 C 34591.917212 4339.690939 34681.25264 4352.01658 34759.994129 4381.557371 C 34805.120235 4398.466928 34862.775711 4433.202824 34911.467084 4433.202824 " stroke="#000000" stroke-width="27.459999" stroke-opacity="1" stroke-miterlimit="10"/><path stroke-linecap="round" transform="matrix(0.0383474, 0, 0, -0.0383474, -1145.064715, 380.818201)" fill="none" stroke-linejoin="round" d="M 33971.254994 5181.501634 C 33972.986696 5182.214687 33975.227722 5127.51329 33975.940775 5119.771566 C 33978.894854 5083.202103 33994.989492 5031.658515 34013.732615 5000.589751 C 34091.455457 4871.119593 34094.71513 4727.592092 34105.207204 4580.804917 C 34111.115363 4497.988836 34091.455457 4395.512849 34154.611632 4332.356673 " stroke="#000000" stroke-width="27.459999" stroke-opacity="1" stroke-miterlimit="10"/><path stroke-linecap="round" transform="matrix(0.0383474, 0, 0, -0.0383474, -1145.064715, 380.818201)" fill="none" stroke-linejoin="round" d="M 33564.814448 4735.741275 C 33564.814448 4730.444306 33590.382513 4719.341043 33595.272023 4711.497453 C 33622.877384 4667.288131 33642.33356 4633.876477 33685.42237 4602.603984 C 33754.282974 4552.486503 33815.707447 4493.099325 33893.124694 4454.390702 C 33920.730054 4440.638954 33948.23355 4427.80399 33977.366882 4418.126834 C 34000.490192 4410.385109 34031.049631 4411.607487 34051.422591 4396.327767 C 34070.878767 4381.659236 34096.039373 4373.917511 34116.819791 4361.490006 C 34125.478299 4356.193036 34145.851259 4332.356673 34156.037739 4332.356673 " stroke="#000000" stroke-width="27.459999" stroke-opacity="1" stroke-miterlimit="10"/><path stroke-linecap="round" transform="matrix(0.0383474, 0, 0, -0.0383474, -1145.064715, 380.818201)" fill="none" stroke-linejoin="round" d="M 34860.025361 1343.134162 C 34910.652166 1492.569821 34903.929089 1704.448602 34918.190161 1861.931581 C 34945.693657 2163.553249 35161.952624 2863.466279 35377.498537 3078.910328 " stroke="#000000" stroke-width="58.619999" stroke-opacity="1" stroke-miterlimit="10"/><path fill="#c69fa4" d="M 213.898438 263.332031 C 213.3125 263.625 212.980469 260.835938 212.921875 256.671875 C 212.851562 251.921875 213.082031 247.59375 214.957031 243.09375 C 216.5625 239.238281 230.5 215.9375 234.304688 215.9375 C 235.425781 215.9375 234.195312 232.136719 232.324219 237.4375 C 229.144531 246.441406 222.609375 258.976562 213.898438 263.332031 " fill-opacity="1" fill-rule="evenodd"/><path fill="#c69fa4" d="M 212.90625 263.355469 C 210.488281 263.058594 223.246094 254.488281 225.140625 253.617188 C 233.429688 249.789062 242.234375 247.101562 251.273438 245.808594 C 255.648438 245.183594 264.511719 245.46875 264.511719 245.46875 C 264.511719 245.46875 256.199219 253.226562 251.914062 255.53125 C 243.960938 259.816406 237.003906 262.707031 228.195312 263.796875 C 226.746094 263.976562 214.226562 265.828125 212.90625 263.355469 " fill-opacity="1" fill-rule="evenodd"/><path fill="#c69fa4" d="M 210.777344 262.753906 C 214.179688 265.664062 213.953125 257.140625 213.492188 255.285156 C 212.175781 250.019531 206.585938 243.0625 202.632812 239.671875 C 200.660156 237.984375 194.484375 230.546875 194.484375 231.867188 C 194.484375 237.324219 194.523438 244.597656 196.082031 248.460938 C 199.949219 258.046875 208.054688 260.421875 210.777344 262.753906 " fill-opacity="1" fill-rule="evenodd"/><path fill="#c69fa4" d="M 212.332031 262.222656 C 215.109375 260.886719 223.378906 262.8125 226.484375 264.125 C 235.21875 267.820312 250.40625 273.097656 247.4375 274.058594 C 242.699219 275.585938 228.667969 277.179688 219.617188 271.25 C 217.144531 269.628906 209.5625 263.5625 212.332031 262.222656 " fill-opacity="1" fill-rule="evenodd"/><path stroke-linecap="round" transform="matrix(0.0383474, 0, 0, -0.0383474, -1145.064715, 380.818201)" fill="none" stroke-linejoin="round" d="M 35424.25448 3120.573031 C 35443.608792 3158.466736 35478.752147 3189.026175 35498.513918 3228.651582 C 35543.945618 3319.616847 35572.671491 3423.518941 35604.962632 3520.2905 C 35639.08734 3622.664622 35689.510415 3721.982801 35734.229062 3818.856224 C 35767.335121 3890.772772 35809.099689 3956.373702 35844.243044 4026.762278 C 35858.402251 4055.080692 35875.617402 4097.048989 35903.630222 4115.792112 " stroke="#000000" stroke-width="27.459999" stroke-opacity="1" stroke-miterlimit="10"/><path stroke-linecap="round" transform="matrix(0.0383474, 0, 0, -0.0383474, -1145.064715, 380.818201)" fill="none" stroke-linejoin="round" d="M 35427.616018 3117.822681 C 35422.522778 3119.554383 35437.496904 3118.6376 35440.858442 3118.6376 C 35451.248652 3118.6376 35461.842591 3118.6376 35472.334665 3118.6376 C 35502.181051 3118.6376 35531.823707 3117.618952 35561.262634 3122.101003 C 35647.134659 3135.343426 35727.302255 3175.070698 35809.303418 3202.472329 C 35870.626027 3222.845288 35929.300151 3267.767665 35987.363086 3296.799132 C 36115.712732 3360.973955 36272.177063 3419.24062 36415.297104 3429.528965 C 36452.172161 3432.177449 36488.741624 3448.679547 36525.311087 3448.679547 " stroke="#000000" stroke-width="27.459999" stroke-opacity="1" stroke-miterlimit="10"/><path stroke-linecap="round" transform="matrix(0.0383474, 0, 0, -0.0383474, -1145.064715, 380.818201)" fill="none" stroke-linejoin="round" d="M 35423.032102 3121.082355 C 35420.892942 3120.878625 35427.412289 3120.369301 35429.653314 3118.943194 C 35434.644689 3115.989115 35440.145389 3114.053684 35445.544223 3111.099604 C 35463.268698 3101.218719 35479.974525 3089.402402 35496.272892 3077.178627 C 35540.58408 3043.970702 35574.403193 2998.946461 35619.529299 2965.942267 C 35642.856338 2948.82898 35668.424402 2927.437373 35695.112979 2916.13038 C 35770.391065 2884.450428 35851.271715 2866.216629 35930.726258 2848.594019 C 35952.932784 2843.602644 35974.833716 2829.443437 35997.345836 2825.674439 C 36007.430451 2824.044602 36018.02439 2825.572574 36028.21087 2824.757656 C 36056.325555 2822.312901 36086.070076 2812.73761 36114.694084 2812.73761 C 36125.491753 2812.73761 36135.168909 2817.83085 36145.457253 2818.747633 C 36155.032544 2819.562551 36168.376833 2819.460686 36176.322287 2824.757656 " stroke="#000000" stroke-width="27.459999" stroke-opacity="1" stroke-miterlimit="10"/><path stroke-linecap="round" transform="matrix(0.0383474, 0, 0, -0.0383474, -1145.064715, 380.818201)" fill="none" stroke-linejoin="round" d="M 34962.501348 3815.698416 C 34965.149833 3787.889326 34990.106709 3761.811937 34997.237245 3733.187929 C 35013.943072 3666.568351 35034.214167 3596.790964 35068.237009 3536.283273 C 35107.658686 3465.996562 35168.471971 3406.100061 35222.765909 3347.324072 C 35283.375464 3281.723142 35382.693642 3239.041791 35403.677791 3144.613123 C 35406.122546 3134.019184 35419.670564 3125.666271 35419.670564 3114.868602 " stroke="#000000" stroke-width="27.459999" stroke-opacity="1" stroke-miterlimit="10"/></svg>